<?xml version="1.0" encoding="utf-8"?>
<!-- Generator: Adobe Illustrator 25.4.1, SVG Export Plug-In . SVG Version: 6.00 Build 0)  -->
<svg version="1.1" id="Слой_1" xmlns="http://www.w3.org/2000/svg" xmlns:xlink="http://www.w3.org/1999/xlink" x="0px" y="0px"
	 viewBox="0 0 18 18" style="enable-background:new 0 0 18 18;" xml:space="preserve">
<style type="text/css">
	.st0{fill-rule:evenodd;clip-rule:evenodd;fill:#333333;}
</style>
<path class="st0" d="M9,0.8C4.4,0.8,0.8,4.4,0.8,9c0,4.6,3.7,8.2,8.2,8.2c4.6,0,8.2-3.7,8.2-8.2C17.2,4.4,13.6,0.8,9,0.8z M13,7.1
	L8.3,12c-0.3,0.3-0.8,0.3-1.1,0L5,9.7C4.7,9.4,4.7,9,5,8.7s0.8-0.3,1.1,0l1.7,1.7L11.9,6c0.3-0.3,0.8-0.3,1.1,0
	C13.3,6.3,13.3,6.8,13,7.1z"/>
</svg>
